{"title":"Motor City MILFs 3","uid":6932887,"size":1101051622,"categoryP":"porn","categoryS":"movies","magnet":"?xt=urn:btih:551b19a6ad393cd8dd2068bfc6606db61a65b93f&amp;dn=Motor+City+MILFs+3&amp;tr=udp%3A%2F%2Ftracker.openbittorrent.com%3A80&amp;tr=udp%3A%2F%2Fopen.demonii.com%3A1337&amp;tr=udp%3A%2F%2Ftracker.coppersurfer.tk%3A6969&amp;tr=udp%3A%2F%2Fexodus.desync.com%3A6969","seeders":0,"leechers":0,"uploader":"tigris1968","files":87,"time":1325720036,"description":"Motor City MILFs 3\n &lt;a href=&quot;\nhttp://bayimg.com/gaLjhAadL&quot; rel=&quot;nofollow&quot; target=&quot;_NEW&quot;&gt;\nhttp://bayimg.com/gaLjhAadL&lt;/a&gt;\n &lt;a href=&quot;\nhttp://bayimg.com/GalJIaADL&quot; rel=&quot;nofollow&quot; target=&quot;_NEW&quot;&gt;\nhttp://bayimg.com/GalJIaADL&lt;/a&gt;\n &lt;a href=&quot;\nhttp://bayimg.com/GAljjAAdl&quot; rel=&quot;nofollow&quot; target=&quot;_NEW&quot;&gt;\nhttp://bayimg.com/GAljjAAdl&lt;/a&gt;\n\nGeneral\nComplete name                    : C:\\Downloads\\Motor City MILFs 3\\dvd\\Motor City MILFs 3.avi\nFormat                           : AVI\nFormat/Info                      : Audio Video Interleave\nFormat profile                   : OpenDML\nFile size                        : 1.00 GiB\nDuration                         : 1h 47mn\nOverall bit rate                 : 1 340 Kbps\nWriting application              : MEncoder SVN-r30881(20100311-gcc4.3.3)\nWriting library                  : MPlayer\n\nVideo\nID                               : 0\nFormat                           : MPEG-4 Visual\nFormat profile                   : Advanced Simple@L5\nFormat settings, BVOP            : 2\nFormat settings, QPel            : No\nFormat settings, GMC             : No warppoints\nFormat settings, Matrix          : Default (H.263)\nCodec ID                         : XVID\nCodec ID/Hint                    : XviD\nDuration                         : 1h 47mn\nBit rate                         : 60.8 Kbps\nWidth                            : 720 pixels\nHeight                           : 480 pixels\nDisplay aspect ratio             : 3:2\nFrame rate                       : 25.000 fps\nStandard                         : NTSC\nColor space                      : YUV\nChroma subsampling               : 4:2:0\nBit depth                        : 8 bits\nScan type                        : Progressive\nCompression mode                 : Lossy\nBits/(Pixel*Frame)               : 0.007\nStream size                      : 46.6 MiB (5%)\nWriting library                  : XviD 1.2.1 (UTC 2008-12-04)\n\nAudio\nID                               : 1\nFormat                           : MPEG Audio\nCodec ID                         : 55\nCodec ID/Hint                    : MP3\nDuration                         : 1h 46mn\nBit rate                         : 128 Kbps\nChannel(s)                       : 2 channels\nSampling rate                    : 44.1 KHz\nCompression mode                 : Lossy\nStream size                      : 97.8 MiB (10%)\nAlignment                        : Aligned on interleaves","torrent":{"xt":"urn:btih:551b19a6ad393cd8dd2068bfc6606db61a65b93f","amp;dn":"Motor+City+MILFs+3","amp;tr":["udp%3A%2F%2Ftracker.openbittorrent.com%3A80","udp%3A%2F%2Fopen.demonii.com%3A1337","udp%3A%2F%2Ftracker.coppersurfer.tk%3A6969","udp%3A%2F%2Fexodus.desync.com%3A6969"],"infoHash":"551b19a6ad393cd8dd2068bfc6606db61a65b93f","infoHashBuffer":{"type":"Buffer","data":[85,27,25,166,173,57,60,216,221,32,104,191,198,96,109,182,26,101,185,63]},"announce":[],"urlList":[]}}